<svg xmlns="http://www.w3.org/2000/svg" viewBox="0 0 64 64" role="img" aria-label="Speckit mark">
  <defs>
    <linearGradient id="speckit-mark-gradient" x1="0" y1="32" x2="64" y2="32" gradientUnits="userSpaceOnUse">
      <stop offset="0" stop-color="#a855f7" />
      <stop offset="1" stop-color="#2563eb" />
    </linearGradient>
  </defs>
  <rect width="64" height="64" rx="18" fill="url(#speckit-mark-gradient)" />
  <path
    fill="#f5f3ff"
    d="M22 40.5c0-5.66 3.76-9.38 10.08-10.73l3.28-.71c1.62-.36 2.24-.9 2.24-1.82 0-1.22-1.16-1.93-3.14-1.93-2.26 0-4.16.88-5.6 2.44l-4.68-3.74C26.84 21.8 30.6 20 36.62 20c6.84 0 10.92 3 10.92 8.07 0 3.88-2.34 6.32-7.16 7.42l-3.44.78c-2 .44-2.82 1.02-2.82 2.02 0 1.24 1.26 2 3.28 2 2.34 0 4.2-.9 5.46-2.34l4.7 3.56C44.54 44.38 40.6 46 36.04 46 28.58 46 22 43.04 22 40.5Z"
  />
</svg>
