<svg xmlns="http://www.w3.org/2000/svg" width="48" height="48" viewBox="0 0 96 96" role="img" aria-labelledby="title">
  <title id="title">Airnub favicon</title>
  <defs>
    <linearGradient id="a" x1="0%" y1="0%" x2="100%" y2="100%">
      <stop offset="0%" stop-color="#38bdf8" />
      <stop offset="100%" stop-color="#1d4ed8" />
    </linearGradient>
  </defs>
  <circle cx="48" cy="48" r="44" fill="url(#a)" />
  <path
    fill="#f8fafc"
    d="M48 26c-1.524 0-2.92.87-3.56 2.2l-16 32A4 4 0 0 0 32.56 64h9.164a4 4 0 0 0 3.58-2.214L48 54.224l2.696 7.562A4 4 0 0 0 54.276 64H63.44a4 4 0 0 0 3.56-5.8l-16-32A4 4 0 0 0 48 26Z"
  />
</svg>
