<svg xmlns="http://www.w3.org/2000/svg" viewBox="0 0 64 64" role="img" aria-label="Airnub mark">
  <defs>
    <linearGradient id="airnub-mark-gradient" x1="0" y1="32" x2="64" y2="32" gradientUnits="userSpaceOnUse">
      <stop offset="0" stop-color="#38bdf8" />
      <stop offset="1" stop-color="#0f172a" />
    </linearGradient>
  </defs>
  <rect width="64" height="64" rx="18" fill="url(#airnub-mark-gradient)" />
  <path
    fill="#f8fafc"
    d="M32 44c-3.16 0-5.73-.92-7.69-2.75-1.97-1.83-2.95-4.22-2.95-7.2 0-3.02.99-5.43 2.95-7.26 1.96-1.82 4.53-2.73 7.69-2.73 3.14 0 5.69.91 7.63 2.73 1.94 1.83 2.91 4.24 2.91 7.26 0 2.98-.97 5.37-2.91 7.2C37.69 43.08 35.14 44 32 44Zm0-4.6c1.48 0 2.64-.5 3.51-1.51.86-1 .29-3.47.29-4.84 0-1.44-.43-2.56-1.28-3.36-.86-.8-2-.2-3.48-.2s-2.67.66-3.54 1.58c-.86.92-1.3 2.12-1.3 3.6 0 1.48.44 2.67 1.3 3.58.87.92 2.02 1.35 3.5 1.35Z"
  />
</svg>
