<svg xmlns="http://www.w3.org/2000/svg" width="96" height="96" viewBox="0 0 96 96" role="img" aria-labelledby="title desc">
  <title id="title">Airnub logomark</title>
  <desc id="desc">Stylized A inside a rounded orb</desc>
  <defs>
    <linearGradient id="a" x1="0%" y1="0%" x2="100%" y2="100%">
      <stop offset="0%" stop-color="#38bdf8" />
      <stop offset="100%" stop-color="#1d4ed8" />
    </linearGradient>
  </defs>
  <circle cx="48" cy="48" r="36" fill="url(#a)" />
  <path
    fill="#f8fafc"
    d="M48 28a4 4 0 0 0-3.56 2.2l-14 28a4 4 0 0 0 3.56 5.8h8a4 4 0 0 0 3.578-2.214L48 55.09l2.422 6.696A4 4 0 0 0 54 64h8a4 4 0 0 0 3.56-5.8l-14-28A4 4 0 0 0 48 28Z"
  />
</svg>
