<svg xmlns="http://www.w3.org/2000/svg" width="320" height="96" viewBox="0 0 320 96" role="img" aria-labelledby="title desc">
  <title id="title">Airnub logo reversed</title>
  <desc id="desc">Rounded logomark and wordmark for dark backgrounds</desc>
  <defs>
    <linearGradient id="a" x1="0%" y1="0%" x2="100%" y2="100%">
      <stop offset="0%" stop-color="#38bdf8" />
      <stop offset="100%" stop-color="#1d4ed8" />
    </linearGradient>
  </defs>
  <g fill="none" fill-rule="evenodd">
    <path fill="url(#a)" d="M40 12c-15.464 0-28 12.536-28 28s12.536 28 28 28c11.4 0 21.234-6.766 25.68-16.516a4 4 0 0 0-3.6-5.684H56.3a4 4 0 0 0-3.58 2.314C50.04 53.328 45.54 56 40 56c-8.836 0-16-7.164-16-16s7.164-16 16-16c5.538 0 10.036 2.672 12.72 7.872a4 4 0 0 0 3.58 2.314h5.78a4 4 0 0 0 3.6-5.684C61.234 18.766 51.4 12 40 12Z" />
    <path fill="#f8fafc" d="M102.182 66c-15.734 0-27.182-12.04-27.182-26.982C75 23.04 86.448 11 102.182 11c13.173 0 22.929 7.08 26.335 18.038h-13.395c-2.683-4.56-7.366-7.252-12.94-7.252-8.722 0-14.89 6.718-14.89 17.232 0 10.514 6.168 17.232 14.89 17.232 5.574 0 10.257-2.692 12.94-7.252h13.395C125.11 58.92 115.355 66 102.182 66Zm38.142-53.28h11.485V66h-11.485V12.72Zm24.07 16.56h-8.006V18.48h8.006V12.72c0-9.642 5.661-15.12 16.2-15.12 3.887 0 7.862.56 10.287 1.12v9.282c-1.824-.56-4.306-.934-6.787-.934-4.676 0-7.5 2.427-7.5 7.5v3.912h13.02v10.8h-13.02V66H164.394V29.28Zm47.836-16.56h11.484V66H212.23V12.72Zm63.67 52.92c-15.733 0-27.181-12.04-27.181-26.982C248.719 23.04 260.167 11 275.9 11c13.174 0 22.93 7.08 26.336 18.038H288.84c-2.683-4.56-7.366-7.252-12.941-7.252-8.722 0-14.89 6.718-14.89 17.232 0 10.514 6.168 17.232 14.89 17.232 5.575 0 10.258-2.692 12.941-7.252h13.395C298.83 58.92 289.074 66 275.9 66Z" />
  </g>
</svg>
